<?xml version="1.0" standalone="no"?>
<!DOCTYPE svg PUBLIC "-//W3C//DTD SVG 20010904//EN"
 "http://www.w3.org/TR/2001/REC-SVG-20010904/DTD/svg10.dtd">
<svg version="1.0" xmlns="http://www.w3.org/2000/svg"
 width="1280.000000pt" height="1280.000000pt" viewBox="0 0 1280.000000 1280.000000"
 preserveAspectRatio="xMidYMid meet">
<metadata>
Created by potrace 1.16, written by Peter Selinger 2001-2019
</metadata>
<g transform="translate(0.000000,1280.000000) scale(0.100000,-0.100000)"
fill="#000000" stroke="none">
<path d="M5695 11639 c-27 -5 -90 -13 -140 -18 -106 -11 -189 -26 -435 -78
-204 -42 -726 -205 -773 -241 -7 -5 -34 -17 -62 -27 -69 -24 -473 -223 -510
-250 -16 -12 -50 -33 -75 -46 -66 -35 -332 -213 -428 -286 -45 -35 -86 -63
-91 -63 -5 0 -37 -27 -72 -61 -35 -33 -82 -72 -104 -86 -42 -28 -479 -465
-522 -523 -15 -19 -43 -54 -62 -76 -20 -23 -47 -58 -61 -79 -14 -20 -44 -59
-68 -86 -23 -27 -42 -55 -42 -63 0 -7 -12 -23 -26 -37 -14 -13 -42 -51 -62
-84 -19 -33 -46 -73 -58 -90 -12 -16 -45 -69 -73 -117 -49 -83 -61 -118 -42
-118 12 0 61 58 61 72 0 5 24 35 53 66 29 31 65 73 79 92 56 75 457 467 508
498 20 11 47 33 60 48 56 60 499 380 564 407 10 4 40 22 65 41 25 18 73 45
106 60 33 15 66 33 75 40 30 26 261 140 400 196 30 13 78 33 105 46 104 49
534 194 643 218 37 8 81 19 97 25 17 5 66 17 110 26 44 10 103 23 130 30 81
21 175 36 245 40 36 2 79 9 95 16 95 39 1184 62 1363 28 28 -6 78 -10 110 -10
31 0 84 -6 117 -14 33 -7 85 -16 115 -19 67 -7 212 -32 260 -45 19 -6 76 -17
125 -26 50 -9 99 -20 110 -25 11 -4 61 -18 110 -30 130 -30 490 -147 560 -181
33 -16 66 -29 72 -29 14 0 188 -80 313 -144 153 -78 285 -149 300 -160 8 -6
31 -20 50 -30 39 -22 139 -85 243 -155 38 -25 78 -51 88 -57 11 -6 33 -23 48
-38 15 -14 31 -26 35 -26 11 0 169 -125 221 -175 23 -22 72 -64 111 -93 95
-73 355 -331 420 -417 29 -39 66 -82 81 -96 27 -23 49 -49 83 -99 29 -43 60
-75 60 -62 0 7 -8 25 -19 40 -10 15 -44 72 -76 127 -32 55 -71 116 -87 136
-15 20 -28 41 -28 47 0 5 -7 15 -15 22 -8 7 -34 40 -56 74 -23 33 -59 80 -80
103 -22 24 -39 46 -39 50 0 5 -30 40 -66 78 -37 39 -77 86 -89 105 -28 42
-359 379 -396 402 -15 9 -60 48 -102 85 -41 37 -92 80 -114 96 -51 37 -120 90
-163 125 -19 16 -53 41 -75 55 -22 15 -80 54 -130 87 -49 33 -101 65 -115 71
-14 6 -34 18 -45 28 -11 10 -51 35 -90 56 -38 21 -92 50 -120 65 -162 87 -349
172 -530 240 -60 22 -119 45 -130 50 -45 22 -240 78 -393 113 -33 8 -65 18
-73 22 -7 5 -31 12 -54 16 -22 4 -76 15 -120 24 -44 9 -114 20 -155 25 -41 4
-88 12 -103 19 -16 6 -61 11 -102 11 -41 0 -86 5 -102 12 -17 8 -88 13 -188
13 -88 1 -214 7 -280 13 -136 13 -475 14 -550 1z"/>
<path d="M3519 8723 c-23 -4 -27 -10 -34 -56 -9 -61 -9 -91 0 -168 7 -53 9
-57 37 -63 33 -6 80 19 98 54 13 23 16 208 4 219 -12 11 -72 19 -105 14z"/>
<path d="M3733 8723 c-10 -3 -13 -42 -13 -144 l0 -140 68 3 67 3 3 50 c6 86
36 97 93 36 21 -21 45 -50 54 -65 15 -22 25 -26 64 -26 40 0 52 5 79 33 32 33
32 34 32 134 0 64 -4 104 -11 109 -19 11 -122 5 -131 -8 -4 -7 -7 -39 -6 -71
1 -41 -3 -61 -13 -68 -22 -14 -26 -12 -56 29 -15 20 -34 43 -40 50 -7 7 -18
21 -25 31 -27 38 -117 62 -165 44z"/>
<path d="M4277 8715 c-14 -13 -17 -37 -17 -131 0 -137 6 -154 58 -154 66 0 71
10 77 145 4 68 2 126 -3 134 -15 22 -95 26 -115 6z"/>
<path d="M3174 8710 c-7 -7 -10 -49 -7 -118 6 -158 3 -152 71 -152 31 0 62 4
68 8 10 6 17 47 24 137 0 6 -3 37 -7 70 l-8 60 -65 3 c-38 2 -70 -2 -76 -8z"/>
<path d="M5628 7921 c-14 -5 -58 -12 -97 -16 -39 -4 -74 -11 -77 -16 -3 -5
-17 -9 -32 -9 -15 0 -58 -12 -97 -26 -38 -13 -83 -29 -100 -33 -39 -12 -103
-46 -132 -71 -13 -11 -38 -28 -56 -37 -115 -61 -293 -218 -332 -293 -10 -19
-24 -40 -32 -48 -24 -24 -81 -118 -104 -171 -11 -28 -27 -56 -35 -62 -8 -6
-14 -26 -14 -43 0 -17 -6 -41 -14 -52 -8 -11 -19 -42 -25 -70 -5 -27 -14 -67
-20 -89 -14 -52 -14 -428 0 -480 6 -22 17 -65 25 -95 26 -104 40 -145 73 -210
61 -121 76 -146 117 -201 61 -80 266 -280 321 -312 26 -16 64 -38 82 -50 83
-52 123 -70 236 -107 199 -64 254 -72 470 -67 180 4 259 14 350 46 17 5 71 24
120 41 89 32 256 124 303 167 14 13 32 23 40 23 18 0 172 149 172 166 0 8 -20
36 -45 64 -25 28 -45 55 -45 60 0 6 -47 57 -104 114 -117 118 -112 116 -189
43 -21 -21 -43 -37 -49 -37 -5 0 -27 -13 -47 -28 -143 -112 -524 -212 -597
-157 -10 8 -36 15 -56 15 -46 0 -158 28 -178 44 -8 7 -46 31 -85 54 -148 88
-278 244 -340 407 -25 66 -26 79 -26 261 0 164 3 201 20 251 29 87 76 186 99
206 11 10 23 29 26 42 8 30 174 164 253 204 128 65 192 79 378 82 159 2 175 0
246 -24 78 -26 150 -61 229 -113 47 -30 150 -129 150 -143 0 -5 15 -16 32 -24
40 -19 44 -16 98 74 22 38 45 69 50 69 5 0 29 26 52 58 23 31 62 79 85 106 56
63 56 87 1 126 -24 16 -49 35 -57 42 -72 61 -202 149 -228 154 -18 3 -36 10
-39 15 -15 24 -194 98 -239 99 -11 0 -33 7 -50 16 -16 9 -66 20 -110 26 -103
14 -342 19 -377 9z"/>
<path d="M2190 6650 c0 -1209 1 -1260 18 -1269 25 -13 1226 -7 1352 7 112 12
203 30 245 47 17 7 61 26 99 41 38 15 88 43 110 61 23 18 60 46 84 62 66 45
158 176 186 266 10 33 23 70 27 83 11 29 12 275 1 288 -5 5 -17 39 -27 77 -10
38 -30 83 -46 103 -16 20 -29 42 -29 48 0 17 -150 161 -187 180 -39 20 -73 62
-73 91 0 14 12 33 30 47 16 12 47 37 68 53 37 28 86 100 106 155 5 13 17 33
27 44 10 11 21 36 24 55 3 20 13 57 21 83 13 38 13 60 5 120 -23 162 -66 270
-129 327 -14 13 -39 39 -53 57 -31 40 -117 101 -163 117 -17 5 -47 20 -66 32
-19 12 -60 28 -90 35 -30 6 -83 21 -117 31 -58 19 -97 20 -742 19 l-681 -1 0
-1259z m1305 766 c82 -30 114 -54 142 -109 31 -61 39 -140 23 -208 -9 -36 -26
-65 -61 -104 -48 -52 -52 -54 -144 -75 -84 -19 -123 -21 -356 -21 -144 0 -267
-3 -273 -8 -13 -11 -38 5 -54 35 -7 13 -12 105 -13 249 -2 218 -1 229 18 245
18 14 59 16 344 15 287 -1 330 -3 374 -19z m102 -1032 c59 -30 84 -49 114 -91
39 -52 39 -52 39 -148 0 -76 -4 -104 -20 -135 -27 -52 -86 -98 -167 -129 l-68
-26 -353 0 c-332 0 -354 1 -370 19 -15 16 -17 46 -14 269 1 137 5 254 8 259
13 21 57 23 399 22 l357 -2 75 -38z"/>
<path d="M8521 6705 c-113 -112 -209 -208 -214 -212 -108 -112 -116 -127 -69
-138 15 -3 131 -1 258 4 126 6 255 8 287 4 44 -4 61 -2 75 10 9 8 37 22 62 31
25 8 53 27 63 41 11 15 28 25 43 25 16 0 28 8 35 24 10 20 127 96 150 96 4 0
15 13 25 28 9 16 33 39 54 52 21 13 49 38 64 56 23 29 24 34 10 48 -8 9 -34
21 -57 27 -23 6 -60 17 -82 25 -22 7 -62 16 -90 20 -27 3 -67 12 -88 20 -21 8
-74 14 -123 14 -53 0 -98 6 -121 15 -19 8 -44 15 -55 15 -13 0 -97 -76 -227
-205z"/>
<path d="M9770 6558 c-26 -11 -49 -21 -185 -81 -44 -19 -100 -43 -125 -53 -25
-10 -61 -28 -80 -39 -19 -11 -53 -28 -75 -37 -22 -9 -67 -27 -100 -40 -86 -34
-85 -64 3 -103 17 -8 32 -18 32 -23 0 -6 23 -25 51 -42 27 -18 62 -49 77 -69
15 -20 32 -40 39 -46 14 -12 73 -125 73 -140 0 -5 14 -23 30 -38 17 -16 30
-33 30 -38 0 -17 40 -9 60 11 24 24 53 26 70 5 12 -14 15 -14 34 3 33 29 93
63 122 68 29 5 100 39 124 59 8 7 31 15 50 19 49 9 167 68 174 86 3 8 11 22
18 32 9 13 8 29 -7 80 -10 34 -26 72 -36 83 -9 11 -37 52 -62 90 -81 127 -200
226 -269 224 -13 0 -34 -5 -48 -11z"/>
<path d="M10131 5727 c-45 -14 -75 -16 -151 -11 -73 5 -110 2 -160 -11 -51
-13 -81 -15 -140 -9 -162 18 -181 3 -198 -148 -13 -120 -57 -207 -162 -320
-67 -73 -96 -95 -174 -136 -95 -50 -213 -92 -259 -92 -13 0 -40 -6 -58 -14
-19 -7 -65 -14 -103 -14 -38 -1 -94 -6 -125 -13 -37 -8 -97 -9 -190 -3 -75 4
-154 8 -176 9 -22 1 -62 7 -90 14 -27 7 -66 17 -85 21 -136 33 -177 44 -191
56 -8 8 -20 14 -26 14 -8 0 -144 68 -223 112 -61 33 -215 143 -273 195 -20 18
-48 33 -61 33 -26 0 -45 -33 -96 -169 -16 -42 -36 -93 -45 -115 -15 -35 -15
-40 -1 -55 9 -10 16 -22 16 -29 0 -16 78 -79 129 -104 25 -12 57 -34 72 -49
14 -14 43 -32 65 -39 21 -7 55 -30 74 -50 23 -25 51 -42 79 -50 40 -10 87 -43
156 -106 13 -12 38 -27 56 -33 18 -6 45 -19 59 -29 34 -23 96 -57 148 -83 25
-12 47 -31 52 -45 5 -13 18 -24 28 -24 9 0 26 -6 37 -13 18 -12 50 -23 123
-42 12 -4 30 -15 40 -24 31 -33 112 -53 234 -58 64 -3 124 -3 133 1 15 5 15 8
0 34 -10 16 -40 44 -67 63 -28 19 -67 52 -87 75 -20 23 -51 49 -69 58 -17 9
-43 34 -57 56 -14 22 -31 40 -39 40 -8 0 -21 11 -30 24 -8 14 -24 27 -35 31
-11 3 -23 15 -26 25 -3 11 -19 32 -36 47 -27 26 -38 53 -21 53 15 0 52 -31 52
-44 0 -17 22 -26 64 -26 19 0 52 -13 82 -32 30 -19 67 -33 96 -36 35 -3 48 -9
51 -23 3 -11 14 -19 24 -19 10 0 28 -7 40 -15 11 -8 39 -17 62 -21 22 -4 46
-13 52 -20 6 -8 16 -14 20 -14 5 0 32 -16 60 -35 32 -22 63 -35 83 -35 44 0
133 -44 141 -69 8 -25 18 -27 35 -6 17 20 32 19 63 -6 24 -18 32 -19 99 -10
75 11 276 68 338 97 78 37 152 75 160 85 3 3 21 15 40 27 19 11 46 32 60 44
14 13 40 34 58 46 40 29 42 59 5 68 -16 4 -33 10 -38 15 -6 4 -55 22 -110 39
-82 26 -170 65 -195 87 -13 11 38 33 76 33 23 0 55 6 71 14 44 22 139 47 156
40 8 -3 38 4 66 16 32 14 60 20 76 16 21 -5 27 -2 37 21 22 49 52 58 62 18 9
-34 23 -31 47 10 12 19 24 35 28 35 12 0 65 88 93 155 61 141 97 383 69 458
-8 21 -17 25 -62 29 -32 2 -74 -4 -108 -15z"/>
<path d="M2212 4397 c-6 -9 -9 -179 -3 -244 2 -20 83 -16 134 6 25 11 52 30
61 42 23 33 21 110 -4 141 -31 41 -168 80 -188 55z"/>
<path d="M2574 4402 c-5 -4 -16 -23 -24 -42 -7 -19 -28 -68 -47 -108 -18 -40
-33 -79 -33 -87 0 -37 55 -28 64 10 6 22 12 25 56 25 43 0 51 -4 70 -30 20
-28 53 -40 63 -22 7 11 -92 236 -110 250 -19 14 -24 14 -39 4z"/>
<path d="M3071 4397 c-8 -10 -11 -51 -9 -133 l3 -119 73 -3 73 -3 -3 28 c-3
24 -8 28 -40 31 -55 5 -52 32 3 32 38 0 40 1 37 28 -3 23 -8 28 -43 32 -32 4
-40 9 -40 25 0 16 8 21 40 25 35 4 40 9 43 33 3 26 1 27 -40 27 -24 0 -52 3
-64 6 -12 3 -26 -1 -33 -9z"/>
<path d="M3393 4394 c-9 -25 3 -48 27 -54 24 -6 25 -10 30 -100 5 -93 5 -95
30 -95 25 0 25 1 28 97 3 96 3 97 29 100 31 4 53 32 37 48 -16 16 -175 19
-181 4z"/>
<path d="M4719 4394 c-5 -7 -8 -62 -7 -130 l3 -119 42 -3 c80 -6 163 61 163
131 0 38 -40 92 -83 111 -43 20 -105 25 -118 10z"/>
<path d="M5010 4402 c-26 -9 -30 -24 -30 -128 0 -107 11 -139 46 -132 17 3 19
14 22 124 3 125 -4 148 -38 136z"/>
<path d="M5168 4402 l-38 -3 0 -130 c0 -120 1 -129 19 -129 24 0 38 18 43 55
3 27 7 30 41 33 31 3 37 7 37 27 0 24 -17 35 -56 35 -19 0 -24 5 -24 24 0 22
5 25 43 28 39 3 42 5 42 32 0 26 -3 29 -35 30 -19 1 -52 0 -72 -2z"/>
<path d="M6340 4402 c-26 -9 -30 -25 -30 -132 0 -109 7 -130 41 -130 22 0 29
20 29 88 l0 56 20 -20 c11 -11 35 -42 53 -70 23 -36 39 -50 59 -52 36 -4 40
13 36 148 l-3 105 -26 3 c-26 3 -27 2 -34 -69 -7 -70 -8 -71 -26 -52 -11 10
-30 39 -43 63 -26 49 -53 71 -76 62z"/>
<path d="M6685 4400 c-74 -5 -80 -7 -83 -28 -3 -18 2 -23 27 -28 l30 -6 3 -97
c3 -91 4 -96 25 -99 27 -4 45 33 43 88 -4 90 -1 108 21 112 12 2 27 11 33 20
20 32 -10 44 -99 38z"/>
<path d="M2798 4288 c-4 -137 -2 -148 27 -148 23 0 35 17 35 50 0 34 17 30 45
-10 21 -31 34 -40 56 -40 37 0 37 14 -1 57 -36 40 -36 43 -10 76 29 37 25 71
-11 101 -24 21 -41 26 -84 26 l-53 0 -4 -112z"/>
<path d="M3688 4380 c-50 -27 -68 -56 -68 -110 0 -55 18 -84 70 -110 49 -25
71 -25 120 0 38 20 80 79 80 114 0 28 -41 85 -76 105 -43 26 -78 26 -126 1z
m118 -71 c28 -55 -2 -109 -60 -109 -42 0 -58 19 -60 69 -1 51 17 71 65 71 33
0 41 -4 55 -31z"/>
<path d="M4095 4372 c-6 -31 -6 -188 2 -214 7 -26 107 -25 151 2 26 16 32 26
32 54 0 18 -9 45 -20 59 -11 14 -17 32 -14 41 18 48 -27 86 -102 86 -38 0 -43
-3 -49 -28z"/>
<path d="M4339 4383 c-7 -110 -6 -199 2 -219 8 -24 13 -25 76 -22 65 3 68 4
68 28 0 22 -5 25 -43 28 -53 4 -52 26 2 30 65 6 56 62 -10 62 -30 0 -34 3 -34
25 0 22 5 25 33 25 41 0 60 12 55 36 -3 16 -14 19 -76 22 -63 3 -72 1 -73 -15z"/>
<path d="M5367 4394 c-9 -9 -9 -216 -1 -238 7 -19 37 -21 52 -3 6 6 12 26 14
42 3 27 7 30 41 33 29 3 37 7 37 22 0 21 -28 40 -59 40 -16 0 -21 6 -21 25 0
22 5 25 33 25 41 0 60 12 55 36 -3 16 -14 19 -74 22 -38 1 -73 0 -77 -4z"/>
<path d="M5576 4378 c-11 -43 -7 -203 7 -222 10 -14 25 -16 77 -14 62 3 65 4
65 28 0 22 -5 25 -42 28 -62 5 -51 32 13 32 14 0 27 7 30 15 10 24 -15 45 -52
45 -30 0 -34 3 -34 25 0 21 5 25 29 25 45 0 61 10 61 36 0 23 -3 24 -74 24
-68 0 -74 -2 -80 -22z"/>
<path d="M5817 4393 c-4 -3 -7 -56 -7 -118 0 -115 6 -135 42 -135 14 0 18 8
18 34 0 50 14 52 57 6 27 -28 46 -40 66 -40 35 0 34 11 -3 52 -33 36 -38 59
-15 78 9 8 15 29 15 55 0 39 -3 45 -32 59 -31 16 -129 22 -141 9z"/>
<path d="M6085 4387 c-3 -7 -4 -65 -3 -128 l3 -114 70 0 c68 0 70 1 70 25 0
22 -5 25 -42 28 -67 5 -55 23 22 34 23 4 33 37 13 49 -7 5 -28 9 -45 9 -28 0
-33 3 -33 25 0 22 4 25 34 25 36 0 70 24 63 44 -6 17 -146 20 -152 3z"/>
<path d="M2148 3689 c14 -28 34 -56 44 -63 10 -6 18 -20 18 -32 0 -11 16 -38
36 -60 19 -21 42 -46 50 -55 8 -9 14 -20 14 -25 0 -5 18 -24 39 -42 23 -19 43
-47 46 -63 4 -17 26 -49 50 -72 24 -23 67 -71 96 -107 51 -62 78 -93 108 -122
7 -7 35 -34 62 -60 26 -27 53 -48 58 -48 6 0 18 -12 27 -27 20 -33 173 -183
186 -183 5 0 36 -27 70 -60 33 -33 75 -67 94 -76 19 -9 34 -20 34 -24 0 -4 36
-31 80 -61 44 -30 80 -60 80 -66 0 -14 5 -15 36 -7 16 4 20 11 16 30 -2 14 0
24 7 24 6 0 11 5 11 10 0 6 -17 10 -39 10 -30 0 -42 5 -55 26 -10 14 -15 33
-13 42 4 14 6 13 12 -5 7 -22 18 -28 40 -23 6 1 33 2 61 1 56 0 91 17 81 41
-3 9 -27 26 -54 39 -26 12 -51 28 -56 35 -4 7 -34 29 -67 49 -33 20 -60 40
-60 45 0 4 -20 13 -45 19 -26 6 -49 19 -55 31 -7 13 -21 20 -39 20 -33 0 -56
21 -40 37 7 7 -3 17 -35 33 -26 12 -51 30 -56 40 -5 10 -29 29 -52 43 -24 14
-56 39 -72 56 -17 17 -34 31 -39 31 -8 0 -26 14 -92 69 -5 5 -17 17 -26 27
-44 49 -149 114 -186 114 -7 0 -13 3 -14 8 -5 53 -12 68 -51 101 -23 20 -54
48 -69 64 -14 15 -31 27 -36 27 -6 0 -16 14 -23 30 -7 18 -22 33 -36 36 -13 3
-24 12 -24 19 0 8 -18 35 -40 62 -23 26 -53 62 -68 80 -39 47 -45 40 -14 -18z"/>
</g>
</svg>
